<?xml version="1.0" encoding="utf-8"?>
<!-- Generator: Adobe Illustrator 25.0.1, SVG Export Plug-In . SVG Version: 6.00 Build 0)  -->
<svg version="1.0" id="Layer_1" xmlns="http://www.w3.org/2000/svg" xmlns:xlink="http://www.w3.org/1999/xlink" x="0px" y="0px"
	 width="256px" height="244px" viewBox="0 0 256 244" enable-background="new 0 0 256 244" xml:space="preserve">
<g>
	<g transform="translate(0.810127, 0.000000)">
		
			<linearGradient id="SVGID_1_" gradientUnits="userSpaceOnUse" x1="-813.0761" y1="657.191" x2="-813.0761" y2="655.6996" gradientTransform="matrix(45.6076 0 0 -81.335 37194.375 53525.4844)">
			<stop  offset="0" style="stop-color:#0994DC"/>
			<stop  offset="0.35" style="stop-color:#66CEF5"/>
			<stop  offset="0.35" style="stop-color:#66CEF5"/>
			<stop  offset="0.8462" style="stop-color:#127BCA"/>
			<stop  offset="0.8462" style="stop-color:#127BCA"/>
			<stop  offset="1" style="stop-color:#127BCA"/>
		</linearGradient>
		<path fill="url(#SVGID_1_)" d="M89.1,92c9.2,28,12.6,78,39.4,78l0,0c2,0,4.1-0.2,6.2-0.6l0,0c-24.4-5.7-27.2-55.1-42.1-80.7l0,0
			C91.4,89.8,90.3,90.9,89.1,92"/>
		
			<linearGradient id="SVGID_2_" gradientUnits="userSpaceOnUse" x1="-813.9376" y1="657.3403" x2="-813.9376" y2="655.8489" gradientTransform="matrix(47.8692 0 0 -83.4083 39079.0469 54897.3984)">
			<stop  offset="0" style="stop-color:#0E76BC"/>
			<stop  offset="0.36" style="stop-color:#36AEE8"/>
			<stop  offset="0.36" style="stop-color:#36AEE8"/>
			<stop  offset="0.8462" style="stop-color:#00ADEF"/>
			<stop  offset="0.8462" style="stop-color:#00ADEF"/>
			<stop  offset="1" style="stop-color:#00ADEF"/>
		</linearGradient>
		<path fill="url(#SVGID_2_)" d="M92.6,88.7c14.9,25.6,17.8,75.1,42.1,80.7l0,0c1.9-0.4,3.8-0.9,5.8-1.6l0,0
			c-21.9-10.7-27.9-58.7-44.8-81.9l0,0C94.7,86.9,93.6,87.8,92.6,88.7"/>
		<path fill="#14559A" d="M114,73.5c-2,0-4.1,0.2-6.2,0.6c-5.4,1-10.9,3.4-16.5,6.9c1.5,1.5,3,3.2,4.3,5.1
			c5.6-4.7,11.3-8.2,16.8-10.2c2.1-0.8,4.2-1.4,6.3-1.7C117.3,73.7,115.7,73.5,114,73.5"/>
		
			<linearGradient id="SVGID_3_" gradientUnits="userSpaceOnUse" x1="-813.0138" y1="656.1115" x2="-813.0138" y2="657.2829" gradientTransform="matrix(45.4522 0 0 -84.5 37094.8281 55608.6953)">
			<stop  offset="0" style="stop-color:#1C63B7"/>
			<stop  offset="0.5" style="stop-color:#33BDF2"/>
			<stop  offset="1" style="stop-color:#33BDF2;stop-opacity:0.4196"/>
		</linearGradient>
		<path fill="url(#SVGID_3_)" d="M157.5,158c2.2-1.8,4.5-3.7,6.7-5.9c-9.3-27.9-12.6-78.6-39.6-78.6c-1.9,0-3.9,0.2-5.8,0.5
			C143.4,80.2,146.5,133.7,157.5,158"/>
		<path fill="#3092C4" d="M118.8,74.1c-1.5-0.4-3.1-0.6-4.8-0.6l10.6,0C122.7,73.5,120.8,73.7,118.8,74.1"/>
		<path fill="#1969BC" d="M157.1,164c-1.1-1-2.1-2.1-3-3.3c-4.5,3.2-9.1,5.7-13.6,7.2c1.6,0.8,3.3,1.4,5.1,1.7
			c1.4,0.3,2.8,0.4,4.3,0.4c5,0,9-0.6,12.4-2.2C160.4,166.8,158.7,165.5,157.1,164"/>
		
			<linearGradient id="SVGID_4_" gradientUnits="userSpaceOnUse" x1="-812.8342" y1="657.5559" x2="-812.8342" y2="656.0645" gradientTransform="matrix(45.0105 0 0 -86.5982 36721.1445 57000.3633)">
			<stop  offset="0" style="stop-color:#166AB8"/>
			<stop  offset="0.4" style="stop-color:#36AEE8"/>
			<stop  offset="0.4" style="stop-color:#36AEE8"/>
			<stop  offset="0.8462" style="stop-color:#0798DD"/>
			<stop  offset="0.8462" style="stop-color:#0798DD"/>
			<stop  offset="1" style="stop-color:#0798DD"/>
		</linearGradient>
		<path fill="url(#SVGID_4_)" d="M112.5,75.8c22,11.5,23.9,63.7,41.5,84.8l0,0c1.2-0.8,2.3-1.7,3.5-2.6l0,0
			c-11-24.4-14.1-77.9-38.7-84l0,0C116.7,74.5,114.6,75,112.5,75.8"/>
		
			<linearGradient id="SVGID_5_" gradientUnits="userSpaceOnUse" x1="-817.0582" y1="657.8918" x2="-817.0582" y2="656.4003" gradientTransform="matrix(58.3509 0 0 -92.0822 47800.9414 60638)">
			<stop  offset="0" style="stop-color:#124379"/>
			<stop  offset="0.39" style="stop-color:#1487CB"/>
			<stop  offset="0.39" style="stop-color:#1487CB"/>
			<stop  offset="0.7802" style="stop-color:#165197"/>
			<stop  offset="0.7802" style="stop-color:#165197"/>
			<stop  offset="1" style="stop-color:#165197"/>
		</linearGradient>
		<path fill="url(#SVGID_5_)" d="M95.7,86.1c16.9,23.1,22.9,71.1,44.8,81.9l0,0c4.5-1.6,9-4,13.6-7.2l0,0
			c-17.6-21.2-19.5-73.3-41.5-84.8l0,0C106.9,77.9,101.3,81.4,95.7,86.1"/>
		
			<linearGradient id="SVGID_6_" gradientUnits="userSpaceOnUse" x1="-788.9825" y1="646.7071" x2="-787.9825" y2="646.7071" gradientTransform="matrix(19.4176 0 0 -30.9219 15389.8398 20097.4141)">
			<stop  offset="0" style="stop-color:#33BDF2;stop-opacity:0.698"/>
			<stop  offset="1" style="stop-color:#1DACD8"/>
		</linearGradient>
		<path fill="url(#SVGID_6_)" d="M78.3,91.4c-2.6,6-5.3,13.8-8.6,24.1c6.5-9.2,13-17,19.4-23.4c-0.9-2.7-1.8-5.2-2.9-7.5
			C83.6,86.6,81,88.8,78.3,91.4"/>
		<path fill="#2B74B1" d="M88.6,82.8c-0.8,0.6-1.6,1.1-2.3,1.7c1,2.2,2,4.8,2.9,7.5c1.2-1.1,2.3-2.3,3.5-3.3
			C91.4,86.6,90,84.6,88.6,82.8"/>
		<path fill="#125A9E" d="M91.4,81c-0.9,0.6-1.8,1.2-2.8,1.8c1.4,1.8,2.8,3.8,4,5.9c1-0.9,2.1-1.8,3.1-2.7
			C94.3,84.2,92.9,82.5,91.4,81"/>
		
			<linearGradient id="SVGID_7_" gradientUnits="userSpaceOnUse" x1="-820.8024" y1="657.1042" x2="-820.8024" y2="658.0814" gradientTransform="matrix(79.1425 0 0 -98.6787 65175.8555 65006.9648)">
			<stop  offset="0" style="stop-color:#136AB4"/>
			<stop  offset="0.6" style="stop-color:#59CAF5;stop-opacity:0.549"/>
			<stop  offset="1" style="stop-color:#59CAF5;stop-opacity:0.2353"/>
		</linearGradient>
		<path fill="url(#SVGID_7_)" d="M241.5,71.4c-12.5,48-38.5,86.6-60.3,96.3h0c-0.4,0.2-0.8,0.3-1.2,0.5c-0.1,0-0.1,0-0.1,0.1
			c-0.1,0-0.2,0.1-0.3,0.1c-0.1,0-0.1,0-0.2,0.1c-0.2,0.1-0.4,0.1-0.5,0.2c-0.1,0-0.2,0.1-0.2,0.1c-0.1,0-0.2,0.1-0.3,0.1
			c-0.1,0-0.2,0.1-0.3,0.1c-0.1,0-0.2,0-0.2,0.1c-0.2,0-0.3,0.1-0.5,0.1c-0.1,0-0.1,0-0.2,0.1c-0.1,0-0.2,0.1-0.3,0.1
			c-0.1,0-0.1,0-0.2,0.1c-0.1,0-0.2,0.1-0.3,0.1c-0.1,0-0.3,0.1-0.4,0.1c1,0.4,2,0.5,3.1,0.5c20.7,0,41.5-37.1,76-98.7L241.5,71.4
			L241.5,71.4z"/>
		
			<linearGradient id="SVGID_8_" gradientUnits="userSpaceOnUse" x1="-820.2636" y1="657.5752" x2="-819.2636" y2="657.5752" gradientTransform="matrix(72.0226 0 0 -99.1613 59078.2891 65329.0508)">
			<stop  offset="0" style="stop-color:#05A1E6;stop-opacity:0.2471"/>
			<stop  offset="1" style="stop-color:#05A1E6"/>
		</linearGradient>
		<path fill="url(#SVGID_8_)" d="M65.2,75.4C65.2,75.4,65.2,75.4,65.2,75.4C65.3,75.4,65.3,75.4,65.2,75.4l0.1-0.1
			c0.1,0,0.2-0.1,0.3-0.1c0,0,0,0,0.1,0c0,0,0.1,0,0.1,0c0.1,0,0.2-0.1,0.4-0.1h0c0.3-0.1,0.5-0.2,0.8-0.3c0,0,0.1,0,0.1,0
			c0.1,0,0.2-0.1,0.3-0.1c0.1,0,0.1,0,0.2,0c0.1,0,0.2-0.1,0.3-0.1c0,0,0.1,0,0.1,0c0.4-0.1,0.8-0.2,1.1-0.3c0.1,0,0.1,0,0.2,0
			c0.1,0,0.2,0,0.3-0.1c0,0,0.1,0,0.2,0c0.1,0,0.2,0,0.3-0.1h0.1c0.2,0,0.5-0.1,0.7-0.1h0.1c0.1,0,0.2,0,0.3-0.1c0.1,0,0.1,0,0.2,0
			c0.1,0,0.2,0,0.3,0c0.1,0,0.1,0,0.2,0c0.2,0,0.5,0,0.7-0.1c-0.7-0.1-1.5-0.1-2.2-0.1c-23.3,0-55.4,43.2-69.8,99.2h2.8
			c4.6-8.2,8.8-16.1,12.6-23.4C26.3,109.6,46.9,82.6,65.2,75.4"/>
		<path fill="#0D82CA" d="M78.3,91.4c2.6-2.5,5.3-4.8,7.9-6.8c-0.6-1.3-1.2-2.5-1.9-3.7C82.2,83.5,80.3,86.9,78.3,91.4"/>
		<path fill="#0D82CA" d="M80.2,75.8c1.5,1.3,2.9,3,4.1,5.1c0.4-0.5,0.8-0.9,1.2-1.3c-1.7-1.6-3.6-2.9-5.6-3.9
			C80,75.7,80.1,75.7,80.2,75.8C80.2,75.7,80.2,75.8,80.2,75.8"/>
		
			<linearGradient id="SVGID_9_" gradientUnits="userSpaceOnUse" x1="-814.3562" y1="655.1417" x2="-814.3562" y2="656.479" gradientTransform="matrix(49.0511 0 0 -73.8222 39985.7539 48531.2188)">
			<stop  offset="0" style="stop-color:#318ED5"/>
			<stop  offset="1" style="stop-color:#38A7E4"/>
		</linearGradient>
		<path fill="url(#SVGID_9_)" d="M16.2,149.3c21.2-40.9,31.3-66.8,49.1-73.8l0,0C46.9,82.6,26.3,109.6,16.2,149.3"/>
		<path fill="#127BCA" d="M85.6,79.6c-0.4,0.4-0.8,0.9-1.2,1.3c0.7,1.1,1.3,2.3,1.9,3.7c0.8-0.6,1.6-1.2,2.3-1.7
			C87.6,81.6,86.6,80.5,85.6,79.6"/>
		
			<linearGradient id="SVGID_10_" gradientUnits="userSpaceOnUse" x1="-813.0745" y1="653.5397" x2="-813.0745" y2="655.2196" gradientTransform="matrix(45.6036 0 0 -57.1283 37126 37503.1992)">
			<stop  offset="0" style="stop-color:#05A1E6"/>
			<stop  offset="1" style="stop-color:#05A1E6;stop-opacity:0.549"/>
		</linearGradient>
		<path fill="url(#SVGID_10_)" d="M25.8,172.5L25.8,172.5c-0.1,0-0.3,0-0.4,0h-0.1c-0.1,0-0.2,0-0.3,0H25c-0.3,0-0.5,0-0.8,0.1h-0.1
			c21.5-0.6,31.3-11.4,36.2-27c3.7-11.8,6.7-21.8,9.4-30.2c-9,12.7-18,27.8-27.1,44.7C38.2,168.3,31.5,171.7,25.8,172.5"/>
		
			<linearGradient id="SVGID_11_" gradientUnits="userSpaceOnUse" x1="-815.4757" y1="655.978" x2="-815.4757" y2="656.978" gradientTransform="matrix(52.5191 0 0 -81.0936 42880.1133 53368.0547)">
			<stop  offset="0" style="stop-color:#1959A6"/>
			<stop  offset="0.5" style="stop-color:#05A1E6"/>
			<stop  offset="0.5" style="stop-color:#05A1E6"/>
			<stop  offset="0.9176" style="stop-color:#7EC5EA"/>
			<stop  offset="1" style="stop-color:#7EC5EA"/>
		</linearGradient>
		<path fill="url(#SVGID_11_)" d="M25.8,172.4L25.8,172.4c5.7-0.7,12.4-4.1,16.8-12.3l0,0c9.1-16.9,18.1-32,27.1-44.7l0,0
			c3.3-10.3,6-18.1,8.6-24.1l0,0C60.4,108.4,42.4,136.8,25.8,172.4"/>
		<path fill="#05A1E6" d="M16.1,149.3c-3.8,7.3-8,15.1-12.6,23.4h8.1C12.7,164.4,14.3,156.6,16.1,149.3"/>
		
			<linearGradient id="SVGID_12_" gradientUnits="userSpaceOnUse" x1="-819.7693" y1="657.1218" x2="-819.9827" y2="658.0099" gradientTransform="matrix(72.6768 0 0 -99.0047 59633.3906 65225.4023)">
			<stop  offset="0" style="stop-color:#165096"/>
			<stop  offset="1" style="stop-color:#0D82CA"/>
		</linearGradient>
		<path fill="url(#SVGID_12_)" d="M72.1,73.7c-0.1,0-0.1,0-0.2,0l0,0c-0.1,0-0.2,0-0.3,0l0,0c-0.1,0-0.1,0-0.2,0l0,0
			c-0.1,0-0.2,0-0.3,0.1l0,0c0,0-0.1,0-0.1,0l0,0c-0.2,0-0.5,0.1-0.7,0.1l0,0h-0.1l0,0c-0.1,0-0.2,0-0.3,0.1l0,0c-0.1,0-0.1,0-0.2,0
			l0,0c-0.1,0-0.2,0-0.3,0.1l0,0c-0.1,0-0.1,0-0.2,0l0,0c-0.4,0.1-0.8,0.2-1.1,0.3l0,0c0,0-0.1,0-0.1,0l0,0c-0.1,0-0.2,0.1-0.3,0.1
			l0,0c0,0-0.1,0-0.2,0l0,0c-0.1,0-0.2,0.1-0.3,0.1l0,0c0,0-0.1,0-0.1,0l0,0c-0.3,0.1-0.5,0.2-0.8,0.3l0,0l0,0l0,0
			c-0.1,0-0.2,0.1-0.4,0.1l0,0c0,0-0.1,0-0.2,0.1l0,0c-0.1,0-0.2,0.1-0.3,0.1l0,0c0,0-0.1,0-0.1,0.1l0,0
			c-17.8,7-27.8,32.9-49.1,73.8l0,0c-1.9,7.4-3.4,15.2-4.5,23.4l0,0h1.1c3.2,0,4.1,0,7.8,0l0,0h0.2h0.5h0.2h0.1h0.2h0.1H22h0.1h0.5
			H23h0.4h0.1h0.7l0,0c0.3,0,0.5,0,0.8-0.1l0,0h0l0,0c0.1,0,0.2,0,0.3,0l0,0h0.1l0,0c0.1,0,0.3,0,0.4,0l0,0
			c16.6-35.7,34.6-64,52.5-81.1l0,0c2-4.5,3.9-7.9,6-10.5l0,0c-1.2-2.1-2.6-3.9-4.1-5.1l0,0c0,0,0,0,0,0l0,0c-0.1,0-0.2-0.1-0.3-0.1
			l0,0c-0.1,0-0.2-0.1-0.2-0.1l0,0c-0.1,0-0.2-0.1-0.2-0.1l0,0c-0.1,0-0.2-0.1-0.3-0.1l0,0c-0.1,0-0.1-0.1-0.2-0.1l0,0
			c-0.2-0.1-0.3-0.1-0.5-0.2l0,0c-0.1,0-0.1,0-0.2-0.1l0,0c-0.1,0-0.2-0.1-0.4-0.1l0,0c-0.1,0-0.1,0-0.2-0.1l0,0
			c-0.2-0.1-0.3-0.1-0.5-0.2l0,0h0l0,0c-0.2-0.1-0.4-0.1-0.6-0.2l0,0c0,0-0.1,0-0.1,0l0,0c-0.2,0-0.3-0.1-0.5-0.1l0,0
			c0,0-0.1,0-0.1,0l0,0c-0.4-0.1-0.8-0.2-1.2-0.3l0,0c0,0-0.1,0-0.1,0l0,0c-0.2,0-0.3-0.1-0.5-0.1l0,0c0,0-0.1,0-0.1,0l0,0
			c-0.2,0-0.4-0.1-0.6-0.1l0,0h-0.1l0,0c-0.2,0-0.3,0-0.5-0.1l0,0C72.6,73.7,72.3,73.7,72.1,73.7"/>
		
			<linearGradient id="SVGID_13_" gradientUnits="userSpaceOnUse" x1="-805.9301" y1="653.6964" x2="-805.9301" y2="654.4993" gradientTransform="matrix(32.7663 0 0 -57.2261 26606.3594 37526.0586)">
			<stop  offset="0" style="stop-color:#05A1E6"/>
			<stop  offset="0.8736" style="stop-color:#0495D6"/>
			<stop  offset="1" style="stop-color:#0495D6"/>
		</linearGradient>
		<path fill="url(#SVGID_13_)" d="M192.9,97.9c-4.1,13.1-7.4,23.9-10.3,32.8l0,0c11.2-15.4,22.3-34.8,32.8-57.2l0,0
			C203.1,77.3,196.6,86.2,192.9,97.9"/>
		
			<linearGradient id="SVGID_14_" gradientUnits="userSpaceOnUse" x1="-817.3593" y1="657.9717" x2="-817.6693" y2="656.8717" gradientTransform="matrix(60.2691 0 0 -96.3231 49482.1445 63445.2148)">
			<stop  offset="0" style="stop-color:#38A7E4;stop-opacity:0.3294"/>
			<stop  offset="0.9615" style="stop-color:#0E88D3"/>
			<stop  offset="0.9615" style="stop-color:#0E88D3"/>
			<stop  offset="1" style="stop-color:#0E88D3"/>
		</linearGradient>
		<path fill="url(#SVGID_14_)" d="M183,166.9c-0.6,0.3-1.1,0.6-1.7,0.8c21.8-9.7,47.8-48.3,60.3-96.3H239
			C210.4,122.5,201.2,156.7,183,166.9"/>
		<path fill="#079AE1" d="M168.7,162.6c4.7-5.8,8.6-15.6,13.9-31.9c-6.1,8.4-12.2,15.5-18.3,21.4c0,0,0,0,0,0.1
			C165.6,156.2,167.1,159.7,168.7,162.6"/>
		<path fill="#1969BC" d="M168.7,162.6c-1.6,2-3.3,3.5-5.2,4.6c-0.4,0.2-0.8,0.5-1.3,0.7c2,1.1,4.2,1.8,6.7,2.1l0,0
			c0.4,0,0.7,0.1,1.1,0.1h0.1c0.2,0,0.3,0,0.5,0h0.1h0.5h0.6h0.2h0.4c0.1,0,0.1,0,0.2,0c0.1,0,0.3,0,0.4,0h0h0.1c0.1,0,0.3,0,0.4,0
			h0c0,0,0.1,0,0.1,0c0.2,0,0.3,0,0.5-0.1h0.1c0.2,0,0.3-0.1,0.5-0.1h0h0c0.3-0.1,0.7-0.1,1-0.2
			C173.1,168.5,170.8,166.1,168.7,162.6"/>
		<path fill="#1E5CB3" d="M128.5,170.1c2,0,4.1-0.2,6.2-0.6c1.9-0.3,3.8-0.9,5.8-1.6c1.6,0.8,3.3,1.4,5.1,1.7
			c1.4,0.3,2.8,0.4,4.3,0.4H128.5L128.5,170.1z"/>
		<path fill="#1E5CB3" d="M149.8,170.1c5,0,9-0.6,12.4-2.2c2,1.1,4.2,1.8,6.7,2.1l0,0c0.4,0,0.7,0.1,1.1,0.1h0.1c0.2,0,0.3,0,0.5,0
			h0.1h0.5L149.8,170.1L149.8,170.1z"/>
		<path fill="#1D60B5" d="M171.2,170.1h0.6h0.2h0.4c0.1,0,0.1,0,0.2,0c0.1,0,0.3,0,0.4,0h0h0.2c0.1,0,0.3,0,0.4,0h0c0,0,0.1,0,0.1,0
			c0.2,0,0.3,0,0.5-0.1c0,0,0.1,0,0.1,0c0.2,0,0.3,0,0.5-0.1h0h0c0.3-0.1,0.7-0.1,1-0.2l0,0c1,0.4,2,0.5,3.1,0.5L171.2,170.1
			L171.2,170.1z"/>
		<path fill="#175FAB" d="M164.3,152.2L164.3,152.2c-2.2,2.1-4.5,4.1-6.7,5.9c-1.2,0.9-2.3,1.8-3.5,2.6c1,1.2,2,2.3,3,3.3
			c1.6,1.6,3.3,2.9,5.2,3.9c0.4-0.2,0.9-0.4,1.3-0.7c1.9-1.1,3.6-2.6,5.2-4.6C167.1,159.7,165.6,156.2,164.3,152.2"/>
		
			<linearGradient id="SVGID_15_" gradientUnits="userSpaceOnUse" x1="-819.4776" y1="658.0255" x2="-819.4776" y2="657.0037" gradientTransform="matrix(70.2816 0 0 -98.1105 57798.0312 64630.2461)">
			<stop  offset="0" style="stop-color:#168CD4"/>
			<stop  offset="0.5" style="stop-color:#1C87CC"/>
			<stop  offset="1" style="stop-color:#154B8D"/>
		</linearGradient>
		<path fill="url(#SVGID_15_)" d="M231,71.4h-10.6h-1.1l0,0h-1l0,0h0c-0.7,0-1.4,0.1-2,0.1l0,0c-0.3,0.7-0.6,1.3-0.9,2l0,0
			c-10.5,22.4-21.6,41.8-32.8,57.2l0,0c-5.3,16.2-9.1,26.1-13.9,31.9l0,0c2,3.5,4.4,5.9,7.2,6.9l0,0c0.1,0,0.1,0,0.2,0l0,0h0l0,0
			c0,0,0.1,0,0.2,0l0,0c0.1,0,0.2-0.1,0.4-0.1l0,0c0.1,0,0.1,0,0.2-0.1l0,0c0.1,0,0.2-0.1,0.3-0.1l0,0c0.1,0,0.1,0,0.2-0.1l0,0
			c0.2-0.1,0.3-0.1,0.5-0.1l0,0c0.1,0,0.2-0.1,0.2-0.1l0,0c0.1,0,0.2-0.1,0.3-0.1l0,0c0.1,0,0.2,0,0.3-0.1l0,0
			c0.1,0,0.2-0.1,0.2-0.1l0,0c0.2-0.1,0.4-0.1,0.5-0.2l0,0c0,0,0.1,0,0.2-0.1l0,0c0.1,0,0.2-0.1,0.3-0.1l0,0c0,0,0.1,0,0.1-0.1l0,0
			c0.4-0.2,0.8-0.3,1.2-0.5l0,0h0l0,0c0.6-0.2,1.1-0.5,1.7-0.8l0,0c18.2-10.2,27.4-44.4,56-95.5l0,0L231,71.4L231,71.4z"/>
		<path fill="#7DCBEC" d="M72.8,73.6c0,0,0.1,0,0.1,0c0.1,0,0.2,0,0.3,0h0.1c0.2,0,0.4,0,0.6,0.1c0,0,0.1,0,0.1,0
			c0.2,0,0.3,0.1,0.5,0.1c0,0,0.1,0,0.1,0c0.4,0.1,0.8,0.2,1.2,0.3c0,0,0.1,0,0.1,0c0.2,0,0.3,0.1,0.5,0.1c0,0,0.1,0,0.1,0
			c0.2,0,0.4,0.1,0.6,0.2c0,0,0,0,0,0c0.2,0,0.3,0.1,0.5,0.2c0.1,0,0.1,0,0.2,0.1c0.1,0,0.2,0.1,0.4,0.1c0.1,0,0.1,0,0.2,0.1
			c0.2,0.1,0.3,0.1,0.5,0.2c0.1,0,0.2,0.1,0.2,0.1c0.1,0,0.2,0.1,0.3,0.1c0.1,0,0.2,0.1,0.2,0.1c0.1,0,0.2,0.1,0.2,0.1
			c2,1,3.9,2.3,5.6,3.9c0.6-0.7,1.3-1.3,2-1.8c-3.8-2.7-8.1-4.2-13-4.2C74,73.6,73.4,73.6,72.8,73.6"/>
		<path fill="#5EC5ED" d="M85.6,79.6c1.1,1,2.1,2.1,3,3.3c0.9-0.6,1.8-1.3,2.8-1.8c-1.2-1.2-2.5-2.3-3.8-3.2
			C86.9,78.3,86.2,78.9,85.6,79.6"/>
		
			<linearGradient id="SVGID_16_" gradientUnits="userSpaceOnUse" x1="-806.0234" y1="775.873" x2="-805.312" y2="778.127" gradientTransform="matrix(32.4594 0 0 4.2491 26239.0977 -3227.7803)">
			<stop  offset="0" style="stop-color:#97D6EE"/>
			<stop  offset="0.7033" style="stop-color:#55C1EA"/>
			<stop  offset="1" style="stop-color:#55C1EA"/>
		</linearGradient>
		<path fill="url(#SVGID_16_)" d="M72.8,73.6c0.6,0,1.2-0.1,1.7-0.1c4.9,0,9.2,1.5,13,4.2c4-3.1,8.8-4.2,15.5-4.2H70.6
			C71.4,73.5,72.1,73.5,72.8,73.6"/>
		
			<linearGradient id="SVGID_17_" gradientUnits="userSpaceOnUse" x1="-800.3266" y1="728.189" x2="-799.6379" y2="727.0847" gradientTransform="matrix(26.4722 0 0 7.484 21275.7988 -5369.2856)">
			<stop  offset="0" style="stop-color:#7ACCEC"/>
			<stop  offset="1" style="stop-color:#3FB7ED"/>
		</linearGradient>
		<path fill="url(#SVGID_17_)" d="M103.1,73.5c-6.7,0-11.5,1.1-15.5,4.2c1.3,0.9,2.6,2,3.8,3.2c5.6-3.5,11.1-5.9,16.5-6.9
			c2.1-0.4,4.1-0.6,6.2-0.6H103.1L103.1,73.5z"/>
		
			<linearGradient id="SVGID_18_" gradientUnits="userSpaceOnUse" x1="-815.3314" y1="656.8801" x2="-815.3314" y2="655.6642" gradientTransform="matrix(52.0449 0 0 -80.6355 42624.1523 53044.5)">
			<stop  offset="0" style="stop-color:#1DA7E7"/>
			<stop  offset="1" style="stop-color:#37ABE7;stop-opacity:0"/>
		</linearGradient>
		<path fill="url(#SVGID_18_)" d="M182.6,130.7c2.9-8.9,6.2-19.7,10.3-32.8c3.7-11.8,10.2-20.6,22.5-24.5c0.3-0.7,0.6-1.3,0.9-2
			c-20,1.2-29.3,11.4-34,26.4c-8.2,26.3-13.2,43.3-18,54.2C170.4,146.3,176.5,139.1,182.6,130.7"/>
	</g>
</g>
</svg>
